<svg width="240" height="240" viewBox="0 0 240 240" fill="none" xmlns="http://www.w3.org/2000/svg">
<path d="M111.108 0C111.108 14.5913 108.234 29.0399 102.65 42.5205C97.0665 56.0011 88.8821 68.2498 78.5645 78.5674C68.2469 88.885 55.9982 97.0695 42.5176 102.653C29.0379 108.237 14.5903 111.11 0 111.11C0.0426307 64.1598 0.806943 39.7783 14.5244 23.0635C17.1838 19.8231 20.1551 16.8517 23.3955 14.1924C36.0653 3.79454 53.1404 0.840163 81.1104 0H111.108Z" fill="white"/>
<path d="M111.163 239.661C64.3951 239.616 40.0771 238.828 23.3955 225.138C20.1551 222.478 17.1838 219.507 14.5244 216.267C3.85619 203.267 1.02529 185.631 0.272461 156.348V129.062H111.163V239.661Z" fill="white"/>
<path d="M239.993 128.89C239.944 175.403 239.122 199.631 225.47 216.267C222.81 219.507 219.839 222.478 216.599 225.138C199.924 238.822 175.619 239.615 128.888 239.661C128.932 225.185 131.803 210.856 137.344 197.479C142.928 183.999 151.112 171.75 161.43 161.433C171.747 151.115 183.996 142.93 197.477 137.347C210.956 131.763 225.403 128.89 239.993 128.89Z" fill="white"/>
<path d="M169.573 0.46582C191.358 1.76797 205.629 5.19017 216.599 14.1924C219.839 16.8517 222.81 19.8231 225.47 23.0635C236.32 36.2846 239.066 54.3027 239.761 84.4922V111.356H128.87V0.46582H169.573Z" fill="white"/>
</svg>
