<svg width="1458" height="278" viewBox="0 0 1458 278" fill="none" xmlns="http://www.w3.org/2000/svg">
<path d="M111.108 0C111.108 14.5913 108.234 29.0399 102.65 42.5205C97.0665 56.0011 88.8821 68.2498 78.5645 78.5674C68.2469 88.885 55.9982 97.0695 42.5176 102.653C29.0379 108.237 14.5903 111.11 0 111.11C0.0426307 64.1598 0.806943 39.7783 14.5244 23.0635C17.1838 19.8231 20.1551 16.8517 23.3955 14.1924C36.0653 3.79454 53.1404 0.840163 81.1104 0H111.108Z" fill="#240046"/>
<path d="M111.163 239.661C64.3951 239.616 40.0771 238.828 23.3955 225.138C20.1551 222.478 17.1838 219.507 14.5244 216.267C3.85619 203.267 1.02529 185.631 0.272461 156.348V129.062H111.163V239.661Z" fill="#240046"/>
<path d="M239.993 128.89C239.944 175.403 239.122 199.631 225.47 216.267C222.81 219.507 219.839 222.478 216.599 225.138C199.924 238.822 175.619 239.615 128.888 239.661C128.932 225.185 131.803 210.856 137.344 197.479C142.928 183.999 151.112 171.75 161.43 161.433C171.747 151.115 183.996 142.93 197.477 137.347C210.956 131.763 225.403 128.89 239.993 128.89Z" fill="#9D4EDD"/>
<path d="M169.573 0.46582C191.358 1.76797 205.629 5.19017 216.599 14.1924C219.839 16.8517 222.81 19.8231 225.47 23.0635C236.32 36.2846 239.066 54.3027 239.761 84.4922V111.356H128.87V0.46582H169.573Z" fill="#240046"/>
<path d="M333.337 214.144V19.1086H466.561V43.1129H358.542V102.524H452.158V126.528H358.542V189.539H468.962V214.144H333.337Z" fill="#240046"/>
<path d="M491.121 49.7141C491.121 10.707 530.728 -2.49536 557.133 13.1075L549.932 36.5117C535.529 26.91 515.125 30.8107 515.125 49.7141V70.4179H551.132V93.8221H515.125V214.144H491.121V93.8221H468.317V70.4179H491.121V49.7141Z" fill="#240046"/>
<path d="M571.057 49.7141C571.057 10.707 610.665 -2.49536 637.069 13.1075L629.868 36.5117C615.465 26.91 595.062 30.8107 595.062 49.7141V70.4179H631.068V93.8221H595.062V214.144H571.057V93.8221H548.253V70.4179H571.057V49.7141ZM656.273 64.1167H680.277V214.144H656.273V64.1167ZM668.275 44.9133C657.473 44.9133 649.672 36.8118 649.672 25.7098C649.672 14.6078 657.473 6.50628 668.275 6.50628C679.077 6.50628 686.878 14.6078 686.878 25.7098C686.878 36.8118 679.077 44.9133 668.275 44.9133Z" fill="#240046"/>
<path d="M767.152 217.745C724.545 217.745 693.939 185.039 693.939 139.13C693.939 93.222 723.944 60.5161 765.952 60.5161C800.458 60.5161 828.363 82.4201 833.164 113.326L807.96 121.727C805.559 99.8232 788.156 83.9203 765.952 83.9203C738.947 83.9203 719.744 106.724 719.744 138.53C719.744 170.936 739.547 193.74 767.152 193.74C789.956 193.74 806.759 178.137 809.16 154.133L835.565 162.535C830.764 194.64 802.259 217.745 767.152 217.745Z" fill="#240046"/>
<path d="M848.235 64.1167H872.239V214.144H848.235V64.1167ZM860.237 44.9133C849.435 44.9133 841.634 36.8118 841.634 25.7098C841.634 14.6078 849.435 6.50628 860.237 6.50628C871.039 6.50628 878.841 14.6078 878.841 25.7098C878.841 36.8118 871.039 44.9133 860.237 44.9133Z" fill="#240046"/>
<path d="M960.458 217.745C916.95 217.745 886.044 185.039 886.044 139.13C886.044 93.222 916.05 60.5161 958.057 60.5161C1003.97 60.5161 1032.17 98.623 1028.57 149.032H912.749C916.95 175.437 935.553 193.74 961.058 193.74C981.462 193.74 997.664 181.738 1001.27 164.935L1027.07 173.337C1019.87 199.741 992.864 217.745 960.458 217.745ZM913.049 125.628H1003.07C999.465 100.423 981.461 83.9203 958.657 83.9203C934.953 83.9203 917.25 101.023 913.049 125.628Z" fill="#240046"/>
<path d="M1042.68 214.144V64.1167H1063.09L1065.79 89.9214C1073.89 71.9181 1093.69 60.5161 1115.9 60.5161C1149.8 60.5161 1174.11 86.9209 1174.11 122.927V214.144H1150.1V125.328C1150.1 101.323 1133.9 84.5204 1111.1 84.5204C1085.89 84.5204 1066.69 104.624 1066.69 132.529V214.144H1042.68Z" fill="#240046"/>
<path d="M1257.44 217.745C1214.83 217.745 1184.22 185.039 1184.22 139.13C1184.22 93.222 1214.23 60.5161 1256.24 60.5161C1290.74 60.5161 1318.65 82.4201 1323.45 113.326L1298.24 121.727C1295.84 99.8232 1278.44 83.9203 1256.24 83.9203C1229.23 83.9203 1210.03 106.724 1210.03 138.53C1210.03 170.936 1229.83 193.74 1257.44 193.74C1280.24 193.74 1297.04 178.137 1299.44 154.133L1325.85 162.535C1321.05 194.64 1292.54 217.745 1257.44 217.745Z" fill="#240046"/>
<path d="M1339.18 252.551C1352.38 251.351 1362.58 244.749 1367.98 230.947L1376.38 209.343L1317.57 64.1167H1345.78L1389.58 179.338L1430.39 64.1167H1458L1391.98 235.748C1382.68 259.752 1366.18 275.355 1345.78 277.755L1339.18 252.551Z" fill="#240046"/>
</svg>
